<svg baseProfile="tiny-ps" version="1.2" viewBox="0 0 100 100" height="100px" width="100px" xmlns:xlink="http://www.w3.org/1999/xlink" xmlns="http://www.w3.org/2000/svg"><title>MoLove Gravitar - Secure</title><defs><linearGradient id="linearGradient-1" y2="63.610586%" x2="-4.85722573e-15%" y1="36.389414%" x1="100%"><stop offset="0%" stop-color="#359FC2"></stop><stop offset="100%" stop-color="#430C65"></stop></linearGradient></defs><g fill-rule="evenodd" fill="none" stroke-width="1" stroke="none" id="Artboard"><rect height="100" width="100" y="0" x="0" fill="#FFFFFF"></rect><path fill-rule="nonzero" fill="url(#linearGradient-1)" id="Shape-Copy" d="M6.93626585,33.7208752 C7.023204,34.2772324 7.07929312,35.0266115 7.10172877,35.9633353 L7.10172877,36.8149024 C7.10172877,38.6372561 7.04283519,40.4113542 6.92504802,42.1315198 C6.80726085,43.8516854 6.61375336,45.7875813 6.35013446,47.9392076 C6.3220899,48.1492608 6.35854783,48.2968658 6.45950826,48.3876996 C6.56327315,48.4785334 6.70349597,48.506919 6.88017672,48.4785334 C8.56285056,47.0422235 10.464272,45.8244826 12.5760277,44.8224719 C14.6877833,43.8204613 16.9425663,42.9745713 19.3347676,42.2876404 C19.3656166,42.2564163 19.3712255,42.2053223 19.3572032,42.1315198 C19.3431809,42.0577173 19.2983096,41.989592 19.2253938,41.9299823 C19.1524779,41.8703726 19.0402997,41.8391484 18.8916635,41.8391484 C18.3896658,41.8987581 18.0138686,41.81644 17.7614675,41.592194 C17.5118709,41.367948 17.3267768,40.8144293 17.2061852,39.9316381 C17.088398,39.0488468 17.0295044,37.6210526 17.0295044,35.6482555 C17.0182866,34.805204 17.0042643,33.9621526 16.9930465,33.1191011 C17.0547445,32.7500887 17.1276604,32.3640449 17.217403,31.9467771 C17.5118709,30.5871082 18.0138686,29.9058545 18.7233961,29.9058545 C18.9589704,29.9058545 19.1721091,30.0335896 19.3656166,30.2862212 C19.5563196,30.5416913 19.6993469,30.9362507 19.7862851,31.4755766 L21.6484441,44.2150207 C21.9148675,46.0089888 22.6664618,47.4225902 23.908836,48.4529864 C25.1484057,49.4833826 26.5674606,50 28.1631963,50 C29.0494045,50 29.8907415,49.8041396 30.6900115,49.4180958 C31.4864771,49.0292135 32.2100269,48.4700177 32.8606608,47.7348315 C33.5112947,47.0024837 34.0413369,46.1140154 34.4563965,45.0665878 C34.484441,44.975754 34.4928544,44.9019515 34.4788321,44.8423418 C34.4648098,44.7827321 34.4255474,44.7600237 34.3694583,44.7742164 C34.3105647,44.7884092 34.2656934,44.828149 34.2376489,44.8877587 C34.0020745,45.1858072 33.6823665,45.3305736 33.2841337,45.3135423 C32.8859009,45.2993495 32.5072993,45.0665878 32.1539378,44.6180958 C31.8005763,44.1696038 31.5481752,43.4514488 31.399539,42.4664695 L30.2553208,34.3283264 C30.238494,33.9280899 30.2497119,33.459728 30.2917787,32.9118865 C30.3506723,32.1341218 30.5273531,31.4386753 30.8246254,30.825547 C31.1190934,30.2124187 31.5621975,29.9058545 32.1539378,29.9058545 C32.5072993,29.9058545 32.8045716,30.056298 33.040146,30.3543465 C33.2757203,30.652395 33.4692278,31.1179184 33.6150595,31.7452395 L36.5849789,43.9907747 C37.0561275,45.9635719 37.796504,47.4594914 38.8004994,48.4756949 C39.8044948,49.4918983 40.9290818,50 42.1686516,50 C43.6466001,50 45.0404149,49.5287995 46.355705,48.5863986 C47.670995,47.6439976 48.7254706,46.3070373 49.5247407,44.5726789 C50.0071072,43.5252513 50.3408375,42.3756357 50.5315405,41.1295092 C50.7727238,42.3983442 51.2186323,43.5678297 51.8720707,44.6379657 C52.9069151,46.3269072 54.3680369,47.6439976 56.2582405,48.5863986 C58.1484441,49.5287995 60.3359201,50 62.817864,50 C65.4484441,50 67.8406454,49.4975754 69.9972724,48.4984033 C72.1538993,47.4963927 73.8590088,46.0827912 75.1154053,44.2604376 C76.3718018,42.438084 77,40.3574216 77,38.0241277 C77,35.8412774 76.4671533,33.9053814 75.4042643,32.21644 C74.3413753,30.5274985 72.8325778,29.2189237 70.8834806,28.2907156 C68.9343834,27.3653459 66.6739915,26.8998226 64.102305,26.8998226 C61.533423,26.9310467 59.1973108,27.4391484 57.0995774,28.4241277 C55.001844,29.4119456 53.3472148,30.8028386 52.1356896,32.5968066 C51.0082981,34.2658782 50.4137534,36.1847428 50.3352286,38.3477232 C50.2959662,38.4016558 50.276335,38.4726198 50.276335,38.5634536 C50.3043796,39.8493199 50.1361122,41.1209935 49.7659239,42.3756357 C49.3957357,43.6302779 48.8124088,44.2604376 48.0159431,44.2604376 C47.54199,44.2604376 47.1746062,44.1270254 46.9081829,43.8573625 C46.6417595,43.5876996 46.448252,43.1988173 46.3332693,42.6907156 L43.8064541,31.5664104 C43.5400307,30.5189829 43.1193623,29.6532229 42.5444487,28.9634536 C41.9695352,28.2765228 41.206723,27.7513897 40.2616212,27.3937315 C39.3165194,27.0360733 38.2087591,26.8544057 36.9383404,26.8544057 C35.3426047,26.8544057 33.9824433,27.2063868 32.8606608,27.9075103 C31.7388782,28.6114725 30.9171725,29.5141336 30.4011525,30.6211709 C30.1739915,31.1065642 30.0225509,31.5976345 29.9243949,32.0887049 C29.599078,30.4139562 28.8951594,29.1451212 27.8098348,28.287877 C26.5983096,27.3312833 25.1512101,26.8515671 23.4657318,26.8515671 C21.7802536,26.8515671 20.369612,27.2773507 19.3207453,28.1289178 C18.2718786,28.9804849 17.5174798,29.9228859 17.0603534,30.9561206 C17.0547445,30.9674749 17.0519401,30.973152 17.0491356,30.9845062 C17.1276604,29.7525724 17.2426431,28.2424601 17.3940837,26.448492 C17.4221283,26.1504435 17.3800615,26 17.2622743,26 C17.1444871,26 16.9958509,26.0596097 16.8191702,26.1788291 C15.1645409,27.2858664 13.1845947,28.287877 10.8793315,29.184861 C8.57406838,30.0818451 6.35854783,30.7545831 4.23276988,31.2030751 C4.14302728,31.2030751 4.07852478,31.2399763 4.03365348,31.3166174 C3.98878217,31.3904199 3.98878217,31.4585452 4.03365348,31.5181549 C4.07852478,31.5777646 4.14583173,31.6089888 4.23276988,31.6089888 C5.08812908,31.5493791 5.72474068,31.6998226 6.13699577,32.0574808 C6.54925086,32.415139 6.81567422,32.9714962 6.93346139,33.7180367 L6.93626585,33.7208752 Z M59.466613,27.422047 C59.7776884,27.0886863 60.171896,26.9536177 60.6519174,27.0139675 C61.4135157,27.0743173 62.4674175,28.3244199 63.8082596,30.7614016 C65.1491016,33.1983833 66.3504961,35.9543566 67.4097613,39.0264479 C68.4690265,42.0985392 69,44.5441423 69,46.3603833 C69,46.8747934 68.8578707,47.2857467 68.5762939,47.5874956 C68.2947171,47.8892445 67.8978278,48.0271868 67.3909895,47.995575 C66.6293913,47.9352253 65.570126,46.693744 64.2131939,44.2711314 C62.8562617,41.8485187 61.6495039,39.1155357 60.5902387,36.0750562 C59.5309735,33.0317029 59,30.6033426 59,28.7871016 C59,28.2123418 59.1555377,27.7582815 59.466613,27.4249208 L59.466613,27.422047 Z M42.0418375,52.384691 C40.1423315,51.4634476 37.9394513,51 35.4331967,51 C32.9296752,51.0310849 30.6530012,51.536921 28.6086408,52.5175083 C26.5642805,53.5009215 24.9517502,54.8856125 23.7710501,56.6715813 C22.59035,58.4575501 22,60.5261089 22,62.8800835 C22,65.0532006 22.5028908,66.9804644 23.5114054,68.6618749 C24.5199201,70.3432854 25.9438663,71.654503 27.7859771,72.5927018 C29.6280879,73.5309006 31.7599075,74 34.1787028,74 C36.7423526,74 39.0736886,73.4998157 41.1754441,72.5050989 C43.2771996,71.5075562 44.9389257,70.100258 46.1633554,68.2860302 C47.3877851,66.4718024 48,64.4004177 48,62.077528 C48,59.9044109 47.4807106,57.9771471 46.4448649,56.2957366 C45.4090192,54.6143261 43.9386103,53.3115862 42.0391044,52.3875169 L42.0418375,52.384691 Z M39.5762939,72.5874391 C39.2947171,72.8892293 38.8978278,73.0271906 38.3909895,72.9955744 C37.6293913,72.9352164 36.570126,71.6935652 35.2131939,69.270621 C33.8562617,66.8476767 32.6495039,64.1143197 31.5902387,61.0734241 C30.5309735,58.0296543 30,55.6009616 30,53.784472 C30,53.2096335 30.1555377,52.7555111 30.466613,52.4221048 C30.7776884,52.0886984 31.171896,51.9536114 31.6519174,52.0139694 C32.4135157,52.0743275 33.4674175,53.3246012 34.8082596,55.7619164 C36.1491016,58.1992316 37.3504961,60.9555822 38.4097613,64.0280939 C39.4690265,67.1006057 40,69.5465435 40,71.3630331 C40,71.8775136 39.8578707,72.2885231 39.5762939,72.5903133 L39.5762939,72.5874391 Z M73.821158,52.4462097 C73.3101808,52.4462097 72.863748,52.6538796 72.4818598,53.0664131 C72.0999716,53.481753 71.7100153,54.1075691 71.3119909,54.9522806 C70.9139665,55.7941857 70.362649,57.118783 69.655349,58.9204599 L66.2506271,67.7632699 C66.11347,68.172997 66.1296062,68.5939496 66.2963461,69.0317402 L66.8476636,70.3170487 C66.9041401,70.4657852 66.9122081,70.6117154 66.8691785,70.760452 C66.8261488,70.9091886 66.721264,71.0130235 66.5491454,71.0719569 L59.1130822,73.9091771 C58.6021049,74.116847 58.2497996,73.9681104 58.0507874,73.4657737 L52.3547361,58.9204599 C51.6743296,57.17491 51.1283908,55.8671508 50.719609,54.9943758 C50.3081379,54.1216009 49.9128029,53.4789466 49.5309146,53.0664131 C49.1490264,52.6538796 48.7025937,52.4462097 48.1916165,52.4462097 C48.1055571,52.4462097 48.0490807,52.4097271 48.0221872,52.3339557 C47.9926043,52.2609906 47.9926043,52.1852191 48.0221872,52.112254 C48.0490807,52.0392889 48.1082465,52 48.1916165,52 L48.5735047,52 C48.7160404,52 48.8558868,52.0140318 48.9984226,52.0449016 C49.2243283,52.0449016 49.4367873,52.0533207 49.6357994,52.0673524 C49.8348116,52.0813842 50.0311344,52.0898032 50.2301466,52.0898032 L60.3017765,52.0898032 C60.670218,52.0898032 61.0386595,52.0841905 61.4071009,52.0673524 C61.7755424,52.0533207 62.1574306,52.0449016 62.555455,52.0449016 C62.86742,52.0168381 63.1578702,52 63.4268056,52 L64.128727,52 C64.2712627,52 64.3627007,52.0364826 64.4057304,52.112254 C64.4487601,52.1852191 64.4487601,52.2609906 64.4057304,52.3339557 C64.3627007,52.4069208 64.2712627,52.4462097 64.128727,52.4462097 C63.1659383,52.4462097 62.4505702,52.6454606 61.9826226,53.0439623 C61.5146751,53.4424641 61.2941481,54.1019564 61.323731,55.0168266 C61.3506245,55.9345032 61.6491428,57.1300084 62.2165964,58.608955 L62.342996,58.9204599 L65.4465103,66.9466219 C65.5325696,67.1542918 65.6455225,67.2581268 65.7853689,67.2581268 C65.9252153,67.2581268 66.0408575,67.1542918 66.1242275,66.9466219 L69.2277417,58.9653615 L69.3541413,58.6117614 C70.1743942,56.3947446 70.4379509,54.811963 70.1394326,53.866223 C69.8409144,52.9204829 69.0260402,52.4462097 67.6948101,52.4462097 C67.5818572,52.4462097 67.4957979,52.4097271 67.4393215,52.3339557 C67.382845,52.2609906 67.382845,52.1852191 67.4393215,52.112254 C67.4957979,52.0392889 67.5818572,52 67.6948101,52 L68.3537017,52 C68.5930542,52 68.8566109,52.0140318 69.138993,52.0449016 C69.5074345,52.0449016 69.8678079,52.0533207 70.2228026,52.0673524 C70.5777973,52.0813842 70.9085878,52.0898032 71.2205529,52.0898032 L71.7718704,52.0898032 C71.9708826,52.0898032 72.1672054,52.0841905 72.3662176,52.0673524 C72.5652298,52.0533207 72.7776887,52.0449016 73.0035944,52.0449016 C73.1461302,52.0168381 73.2859766,52 73.4285123,52 L73.8104006,52 C73.8964599,52 73.9529363,52.0364826 73.9798298,52.112254 C74.0067234,52.1852191 74.0067234,52.2609906 73.9798298,52.3339557 C73.950247,52.4069208 73.8937705,52.4462097 73.8104006,52.4462097 L73.821158,52.4462097 Z M95.4572736,68.7422124 C95.0357547,69.0694138 94.6455649,69.2922492 94.2867042,69.4107187 C93.9278435,69.5291881 93.5063247,69.5884229 93.0249956,69.5884229 C90.9829075,69.5884229 89.0205661,68.7704194 87.1294273,67.1372333 C85.7082251,65.9102281 84.4920861,64.4660289 83.4781623,62.8102772 C84.4664532,62.7679666 85.4063264,62.7228354 86.2977819,62.6777042 C88.112022,62.5874417 89.724047,62.5141035 91.1367049,62.4548688 C92.0651857,62.4266618 92.8825906,62.395634 93.5889196,62.3646063 C94.2924004,62.3363993 94.8848054,62.3053716 95.3661344,62.2743439 C96.146514,59.8372578 96.2063241,57.7640422 95.5455647,56.0575178 C94.8848054,54.3481727 93.7227803,53.078857 92.0566414,52.2467501 C90.3905025,51.4146431 88.4480979,51 86.2294275,51 C83.7686685,51 81.5272133,51.5726024 79.5022138,52.7149865 C77.4772142,53.8601913 75.885126,55.3523424 74.7316452,57.1942605 C73.5753163,59.0361786 73,60.9373314 73,62.9005396 C73,65.1288938 73.5468353,67.0836399 74.6433541,68.7619573 C75.7370247,70.4402747 77.1924042,71.7349767 79.0094924,72.6404219 C80.8237325,73.5458671 82.8117067,74 84.9734151,74 C86.7449337,74 88.6702498,73.5599706 90.7579075,72.6855531 C92.8427172,71.8083149 94.4547422,70.6292617 95.5968305,69.142752 C95.6566406,69.0835173 95.6879697,69.0242826 95.6879697,68.9650478 C95.6879697,68.9058131 95.6651849,68.8606819 95.6196153,68.8324749 C95.5740457,68.8042678 95.5199318,68.7732401 95.4629698,68.7422124 L95.4572736,68.7422124 Z M82.7286942,60.6845711 C81.575296,58.3606468 81,56.201151 81,54.2088243 C81,53.5456289 81.0954149,53.011236 81.2890511,52.6056454 C81.479881,52.2027953 81.7829638,52 82.1982994,52 C82.8774292,52 83.6996815,52.8166621 84.6594435,54.4472458 C85.6192056,56.0778295 86.3151733,57.7166347 86.7445406,59.3636613 C87.1739078,61.0106879 87.0616549,61.8328309 86.4105883,61.8328309 C86.2029205,61.8328309 85.9587705,61.8410523 85.6781383,61.8547547 C85.3975061,61.8684571 85.0635539,61.8903809 84.6790878,61.9205262 C84.3030407,61.9561524 83.8848987,61.9808167 83.4471125,62 C83.1945436,61.5752261 82.9531999,61.1394903 82.7286942,60.6873116 L82.7286942,60.6845711 Z M20.9655184,73.6598565 C21.0114939,73.7341736 21.0114939,73.811349 20.9655184,73.8856661 C20.9195428,73.9599831 20.8362122,74 20.7155265,74 C19.8362448,73.9685582 17.2644894,73.9542664 12.9973868,73.9542664 C8.7302843,73.9542664 6.15565544,73.9685582 5.27924717,74 C5.15856145,74 5.07523082,73.9628415 5.02925531,73.8856661 C4.98327979,73.8084907 4.9919002,73.7341736 5.05224307,73.6598565 C5.11258593,73.5855395 5.20453696,73.5455226 5.32522269,73.5455226 C6.29358198,73.5769644 6.98321472,73.0110115 7.39124742,71.850522 C7.79928012,70.692891 8.00329647,68.8921315 8.00329647,66.4539604 C7.99467606,65.7851069 7.98318218,65.1162534 7.97456177,64.4473998 C7.95157401,62.2750551 7.92571278,60.1027104 7.90272503,57.9303656 C7.82801481,56.2868153 7.76479848,54.9062331 7.72169643,53.617118 C7.70445562,53.0997569 7.65560663,52.3851698 7.15274943,51.9449842 C6.89413715,51.7191747 6.50909221,51.6362826 5.99474113,51.6963079 C5.84244724,51.6963079 5.73038192,51.6677244 5.65279824,51.6048407 C5.57808802,51.5448154 5.53211251,51.4762151 5.51774516,51.401898 C5.50337781,51.327581 5.50912475,51.2732723 5.54073292,51.2446889 C7.99180259,50.5529686 10.2991988,49.7011807 12.4657949,48.6921838 C14.6295176,47.6831868 16.5748566,46.4569554 18.3018119,45.0106311 C18.4828405,44.9820476 18.626514,45.0106311 18.7328324,45.1020983 C18.8391508,45.1935654 18.8765059,45.3421995 18.8448977,45.5537173 C18.5719181,47.7232037 18.3765221,49.6725973 18.2558364,51.401898 C18.2299752,51.7763416 18.1380242,53.428467 18.0748078,56.7555845 C18.0374527,58.6792529 18.0000976,61.2689165 17.9972241,64.3673661 L17.9972241,66.451102 C17.9972241,67.9260098 18.0431997,69.1322328 18.1322772,70.0640543 C18.2242283,70.9987342 18.4655997,71.8105052 18.8592651,72.5022255 C19.2529304,73.1939458 19.8735999,73.5398059 20.7212734,73.5398059 C20.8419592,73.5398059 20.9252898,73.5769644 20.9712653,73.6541399 L20.9655184,73.6598565 Z"></path></g></svg>